<?xml version="1.0" standalone="no"?>
<!DOCTYPE svg PUBLIC "-//W3C//DTD SVG 20010904//EN"
 "http://www.w3.org/TR/2001/REC-SVG-20010904/DTD/svg10.dtd">
<svg version="1.0" xmlns="http://www.w3.org/2000/svg"
 width="176.000000pt" height="208.000000pt" viewBox="0 0 176.000000 208.000000"
 preserveAspectRatio="xMidYMid meet">

<g transform="translate(0.000000,208.000000) scale(0.100000,-0.100000)"
fill="#000000" stroke="none">
<path d="M360 1730 c0 -13 -7 -20 -20 -20 -17 0 -20 -7 -20 -40 0 -33 -3 -40
-20 -40 -19 0 -20 -7 -20 -130 0 -123 1 -130 20 -130 18 0 20 -7 20 -60 0 -53
-2 -60 -20 -60 -18 0 -20 -7 -20 -60 0 -53 -2 -60 -20 -60 -13 0 -20 -7 -20
-20 0 -15 -7 -20 -25 -20 -20 0 -25 -5 -25 -25 0 -23 4 -25 45 -25 l45 0 0
-40 0 -40 40 0 c33 0 40 -3 40 -20 0 -14 7 -20 23 -21 63 -3 62 -3 64 -41 2
-34 0 -38 -22 -38 -18 0 -25 -5 -25 -20 0 -13 -7 -20 -20 -20 -17 0 -20 -7
-20 -45 0 -38 -3 -45 -20 -45 -13 0 -20 -7 -20 -20 0 -16 8 -19 63 -22 l62 -3
2 -100 c2 -152 1 -145 23 -145 18 0 20 7 20 85 0 77 2 85 19 85 13 0 21 -8 23
-23 2 -12 6 -20 9 -17 10 9 39 -22 37 -39 -2 -10 3 -15 15 -13 11 2 17 -4 17
-18 0 -15 6 -20 25 -20 18 0 25 -5 25 -20 0 -13 7 -20 19 -20 17 0 19 -8 19
-83 l0 -84 -39 -1 c-35 -2 -39 1 -39 22 0 19 -4 23 -21 19 -19 -5 -20 -2 -19
68 2 102 3 99 -25 99 l-25 0 0 -105 0 -105 -39 0 c-33 0 -40 4 -43 23 -2 12
-10 22 -18 22 -8 0 -16 10 -18 22 -2 15 -10 23 -23 23 -10 0 -19 7 -19 15 0
11 11 15 40 15 36 0 40 3 40 25 0 23 -4 25 -45 25 -38 0 -45 -3 -45 -20 0 -13
-7 -20 -20 -20 -17 0 -20 -7 -20 -45 0 -38 3 -45 20 -45 17 0 20 -7 20 -40 0
-33 3 -40 20 -40 13 0 20 -7 20 -20 0 -20 7 -20 425 -20 418 0 425 0 425 20 0
18 7 20 85 20 78 0 85 2 85 20 0 13 7 20 20 20 13 0 20 7 20 20 0 17 7 20 45
20 38 0 45 3 45 20 0 13 7 20 20 20 15 0 20 7 20 25 0 18 5 25 20 25 17 0 20
7 20 40 0 33 3 40 20 40 19 0 20 7 20 125 0 118 -1 125 -20 125 -13 0 -20 7
-20 20 0 13 -7 20 -20 20 -15 0 -20 7 -20 25 0 18 -5 25 -20 25 -13 0 -20 7
-20 20 0 15 -7 20 -25 20 -18 0 -25 5 -25 20 0 13 -7 20 -20 20 -13 0 -20 7
-20 20 0 17 -7 20 -45 20 l-45 0 0 -165 c0 -158 -1 -165 -20 -165 -13 0 -20
-7 -20 -20 0 -13 -7 -20 -20 -20 -17 0 -20 -7 -20 -45 0 -38 -3 -45 -20 -45
-17 0 -20 7 -20 45 0 38 -3 45 -20 45 -13 0 -20 7 -20 20 0 15 -7 20 -25 20
-22 0 -25 4 -25 40 0 36 3 40 25 40 18 0 25 5 25 20 0 15 -7 20 -25 20 -18 0
-25 5 -25 20 0 15 7 20 25 20 23 0 25 4 25 45 0 41 -2 45 -25 45 -18 0 -25 5
-25 20 0 17 -7 20 -40 20 -33 0 -40 3 -40 20 0 15 -7 20 -25 20 -18 0 -25 5
-25 20 0 13 -7 20 -20 20 -13 0 -20 -7 -20 -20 0 -13 7 -20 19 -20 16 0 20 -8
23 -42 l3 -43 63 -3 c54 -3 62 -6 62 -22 0 -13 -7 -20 -20 -20 -17 0 -20 -7
-20 -40 l0 -40 -65 0 c-58 0 -65 -2 -65 -20 0 -17 -7 -20 -40 -20 -33 0 -40
-3 -40 -20 0 -14 -7 -20 -22 -21 -59 -3 -63 -4 -66 -27 -3 -21 -8 -24 -43 -20
l-39 4 0 -43 0 -43 -40 0 -40 0 0 40 c0 33 -3 40 -19 40 -13 0 -21 8 -23 23
-2 18 -10 23 -45 25 -35 3 -43 7 -43 23 0 12 -7 19 -20 19 -13 0 -20 7 -20 20
0 17 -7 20 -40 20 l-40 0 0 40 0 40 40 0 40 0 0 65 c0 58 2 65 20 65 13 0 20
7 20 20 0 13 -7 20 -20 20 -13 0 -20 -7 -20 -20 0 -13 -7 -20 -20 -20 -13 0
-20 7 -20 20 0 13 -7 20 -20 20 -13 0 -20 7 -20 20 0 17 -7 20 -45 20 -38 0
-45 3 -45 20 0 13 -7 20 -20 20 -29 0 -27 38 3 42 20 3 22 9 25 86 3 74 5 82
22 82 18 0 20 7 20 65 0 58 -2 65 -20 65 -19 0 -20 7 -20 120 0 99 3 120 15
120 11 0 15 -18 17 -82 3 -75 5 -83 23 -83 18 0 20 8 23 63 l3 62 39 0 c33 0
40 3 40 20 0 13 7 20 20 20 13 0 20 -7 20 -20 0 -13 7 -20 20 -20 17 0 20 -7
20 -40 l0 -40 170 0 c169 0 169 0 168 -22 -2 -47 2 -58 22 -58 14 0 20 -7 20
-24 0 -19 4 -23 20 -19 16 4 20 0 20 -21 0 -19 5 -26 20 -26 27 0 27 36 -1 43
-14 4 -20 13 -19 29 5 54 1 66 -20 61 -19 -5 -20 0 -20 76 0 74 2 81 20 81 13
0 20 7 20 20 0 17 7 20 45 20 38 0 45 3 45 20 0 17 7 20 40 20 39 0 39 -1 38
-35 l-1 -35 -64 0 c-61 0 -63 -1 -63 -25 0 -23 4 -25 45 -25 l45 0 0 -105 c0
-98 1 -105 20 -105 19 0 20 7 20 125 l0 125 25 0 25 0 0 -165 0 -165 -25 0
c-18 0 -25 -5 -25 -20 0 -15 7 -20 25 -20 25 0 25 -1 25 -79 l0 -79 39 -7 c37
-6 58 -25 44 -39 -4 -3 -24 -6 -45 -6 -31 0 -38 -3 -38 -20 0 -17 -7 -20 -45
-20 -38 0 -45 -3 -45 -20 0 -14 -7 -20 -24 -20 -19 0 -23 -4 -19 -19 6 -24 20
-27 84 -23 40 3 49 7 49 23 0 16 7 19 45 19 l45 0 0 40 c0 33 3 40 20 40 30 0
28 47 -2 52 -16 2 -22 9 -20 21 2 12 -4 17 -23 17 -19 0 -26 5 -24 18 1 9 1
131 0 270 -1 245 -2 252 -21 252 -13 0 -20 7 -20 20 0 15 -7 20 -25 20 -18 0
-25 5 -25 20 0 17 -7 20 -45 20 -38 0 -45 -3 -45 -20 0 -17 -7 -20 -40 -20
-33 0 -40 -3 -40 -20 0 -13 -7 -20 -20 -20 -13 0 -20 -7 -20 -19 0 -13 -8 -21
-22 -23 -19 -3 -23 -9 -23 -43 l0 -40 -142 -2 -143 -1 0 23 c0 17 -6 25 -22
27 -13 2 -23 10 -23 18 0 8 -10 16 -22 18 -15 2 -23 10 -23 23 0 12 -7 19 -20
19 -13 0 -20 7 -20 20 0 13 -7 20 -20 20 -13 0 -20 7 -20 20 0 17 -7 20 -45
20 -38 0 -45 -3 -45 -20z m87 -50 c-4 -16 0 -20 19 -20 15 0 24 -6 24 -15 0
-12 -13 -15 -60 -15 l-60 0 0 35 c0 34 1 35 41 35 36 0 41 -2 36 -20z m1013
-825 c0 -18 5 -25 20 -25 13 0 20 -7 20 -20 0 -15 7 -20 25 -20 18 0 25 -5 25
-20 0 -13 7 -20 20 -20 13 0 20 -7 20 -20 0 -13 7 -20 20 -20 19 0 20 -7 20
-125 l0 -125 -25 0 c-18 0 -25 5 -25 20 0 11 -6 20 -14 20 -7 0 -16 -9 -19
-20 -3 -12 -14 -20 -26 -20 -14 0 -21 -6 -21 -20 0 -13 -7 -20 -20 -20 -13 0
-20 -7 -20 -19 0 -10 -9 -21 -20 -24 -11 -3 -20 -12 -20 -20 0 -16 -45 -26
-116 -26 -40 0 -42 2 -46 34 -5 43 0 55 23 55 12 0 19 7 19 20 0 13 7 20 20
20 13 0 20 7 20 20 0 13 7 20 20 20 13 0 20 7 20 20 0 13 7 20 20 20 19 0 20
7 20 170 0 163 1 170 20 170 15 0 20 -7 20 -25z m-534 -316 c-3 5 9 8 27 7 25
-1 33 -6 35 -25 3 -20 0 -23 -17 -18 -17 4 -21 1 -21 -19 0 -17 -6 -24 -20
-24 -21 0 -21 3 -23 -105 -2 -50 -5 -60 -19 -59 -16 2 -23 -14 -19 -39 0 -4
-28 -7 -64 -7 l-65 0 0 85 c0 78 2 85 20 85 13 0 20 7 20 20 0 13 7 20 20 20
13 0 20 7 20 20 0 15 7 20 26 20 18 0 25 4 21 14 -9 22 12 36 40 25 13 -5 22
-5 19 0z m234 -19 c0 -15 7 -20 25 -20 25 0 25 -1 25 -80 0 -79 0 -80 -25 -80
-20 0 -25 -5 -25 -25 0 -14 -3 -24 -7 -24 -21 3 -31 -3 -36 -21 -5 -18 -14
-20 -86 -20 -80 0 -81 0 -81 26 0 21 4 24 20 19 19 -6 20 -2 21 72 1 43 1 81
0 86 0 4 8 7 19 7 13 0 20 7 20 20 0 13 7 20 19 20 10 0 21 9 24 20 4 16 14
20 46 20 34 0 41 -3 41 -20z"/>
<path d="M496 1583 c-3 -3 -6 -53 -6 -110 0 -102 0 -103 24 -103 25 0 25 0 22
101 -2 79 -5 103 -18 110 -8 5 -18 6 -22 2z"/>
<path d="M423 1333 c-22 -8 -15 -43 7 -43 18 0 20 -7 20 -65 0 -58 -2 -65 -20
-65 -11 0 -20 -6 -20 -14 0 -10 21 -15 78 -19 42 -2 78 -4 79 -3 2 2 6 30 9
64 7 62 7 62 -20 62 -21 0 -26 5 -26 24 0 21 -4 23 -40 19 -35 -3 -40 -1 -40
16 0 22 -9 30 -27 24z m107 -103 c0 -13 -7 -20 -20 -20 -13 0 -20 7 -20 20 0
13 7 20 20 20 13 0 20 -7 20 -20z"/>
<path d="M780 1310 c0 -13 7 -20 19 -20 20 0 31 -34 31 -96 0 -30 -3 -34 -25
-34 -16 0 -25 -6 -25 -15 0 -8 3 -15 8 -15 4 0 42 -3 85 -6 l77 -6 0 66 c0 59
-2 66 -20 66 -13 0 -20 7 -20 20 0 17 -7 20 -40 20 -37 0 -45 7 -41 33 0 4
-10 7 -24 7 -18 0 -25 -5 -25 -20z m130 -80 c0 -13 -7 -20 -20 -20 -13 0 -20
7 -20 20 0 13 7 20 20 20 13 0 20 -7 20 -20z"/>
<path d="M620 1125 c0 -42 -2 -45 -26 -45 -19 0 -25 -5 -22 -17 3 -15 16 -18
86 -21 77 -3 82 -2 82 18 0 13 -7 20 -20 20 -17 0 -20 7 -20 45 l0 45 -40 0
-40 0 0 -45z"/>
</g>
</svg>
